<svg width="341.318" height="341.275" viewBox="0 0 90.307 90.296" xmlns="http://www.w3.org/2000/svg"><path d="M37.546 89.76C21.059 86.988 7.066 74.724 1.965 58.578c-2.62-8.293-2.62-18.556 0-26.848C6.427 17.603 17.603 6.428 31.729 1.965c8.293-2.62 18.556-2.62 26.848 0C72.704 6.428 83.879 17.603 88.342 31.73c2.62 8.292 2.62 18.555 0 26.848-4.463 14.126-15.638 25.302-29.765 29.764-6.066 1.916-14.629 2.493-21.03 1.417zm24.85-15.883c12.927-7.297 15.074-8.626 15.875-9.824l.925-1.385V27.64l-.921-1.386c-.797-1.198-2.944-2.53-15.875-9.85L47.446 7.938l-2.293-.001-2.293-.001-14.949 8.466c-11.98 6.786-15.115 8.71-15.786 9.695l-.838 1.229V44.86c0 9.644.14 17.901.31 18.35.555 1.455 2.127 2.669 6.828 5.273 4.644 2.572 7.113 3.482 9.455 3.482 2.178 0 4.843-.999 6.149-2.305 2.236-2.236 2.305-2.882 2.305-21.534 0-14.862-.06-16.678-.558-16.87-.793-.304-3.77-.255-4.283.071-.327.208-.454 4.296-.529 16.959l-.098 16.684-.99.851c-.743.639-1.403.85-2.646.85-1.4-.001-2.366-.399-6.242-2.569l-4.586-2.567V28.75l14.11-8.004c7.762-4.402 14.307-8.014 14.546-8.026.399-.02 27.576 15.136 28.586 15.942.348.278.424 3.875.352 16.622l-.091 16.268-14.24 8.028c-7.83 4.416-14.366 8.028-14.523 8.028-.157 0-1.925-.959-3.93-2.13-2.249-1.316-3.914-2.071-4.35-1.974-1.3.29-4.592 1.807-4.694 2.164-.055.194 1.772 1.447 4.061 2.783 7.213 4.213 7.113 4.17 9.277 4.008 1.769-.132 3.263-.891 16.89-8.583zM59.354 60.28c3.204-.643 5.888-2.335 7.23-4.555 1.002-1.658 1.147-2.207 1.147-4.351 0-4.845-2.629-7.062-9.701-8.183-11.296-1.79-11.998-1.988-12.375-3.489-.348-1.385.45-2.883 1.912-3.587 1.847-.89 7.132-1.088 9.634-.36 2.196.638 3.255 1.602 3.944 3.594l.483 1.395h2.434c2.317 0 2.44-.042 2.557-.866.067-.477-.065-1.509-.293-2.294-1.339-4.602-5.006-6.78-12.035-7.147-4.713-.246-8.347.475-10.808 2.144-3.986 2.703-4.826 8.522-1.684 11.664 1.72 1.72 4.559 2.641 10.461 3.393 5.852.746 6.753.929 8.239 1.671 1.368.684 1.576 1.032 1.582 2.653.006 1.596-1.16 2.87-3.13 3.417-2.15.597-9.499.412-11.319-.285-1.686-.646-3.184-2.41-3.184-3.748 0-1.206-.704-1.606-2.823-1.606-2.93 0-3.252.54-2.277 3.821.965 3.251 3.713 5.569 7.763 6.549 2.55.616 9.538.713 12.243.17z" fill="#8bc749"/></svg>
