<svg width="1478.007" height="452.476" viewBox="0 0 391.056 119.718" xmlns="http://www.w3.org/2000/svg"><path d="M73.372 119.39c.085-.256.7-.595 1.365-.755.666-.159 1.976-.635 2.91-1.057 1.283-.58 1.846-.677 2.294-.394 1.582.998-.101 1.901-4.494 2.41-1.772.206-2.198.164-2.075-.205zm24.007.15c-.242-.097-.44-.396-.44-.664 0-.618 1.305-1.334 1.967-1.08.548.21.703 1.626.178 1.626-.178 0-.535.066-.794.148a1.573 1.573 0 01-.91-.03zm3.613-3.626c-.39-.158-7.376-.482-15.523-.72-8.147-.238-14.95-.56-15.117-.718-.424-.397.049-1.05.766-1.057.514-.005.524-.053.068-.347-.291-.188-1.264-.345-2.161-.348-4.164-.014-5.113-1.089-1.298-1.47 2.282-.23 4.693-1.14 4.375-1.654-.09-.146-.032-.48.13-.743.243-.393.678-.402 2.471-.049 1.197.236 2.681.314 3.298.173 1.022-.232 7.472-.451 14.44-.49 2.882-.017 3.643-.468 1.41-.837-3.748-.62-22.149.036-24.606.876-2.746.94-17.75.661-17.547-.326.092-.446-2.125-2.886-2.637-2.903-.152-.005-1.864-.164-3.804-.354-1.94-.19-6.447-.505-10.015-.7-3.567-.196-7.298-.582-8.29-.857-.992-.276-2.836-.603-4.097-.726-3.173-.31-9.885-1.566-10.698-2.001-.37-.198-2.113-.592-3.873-.875-3.673-.591-3.773-.632-3.773-1.554 0-.578-.261-.688-1.676-.71-.922-.013-1.993-.154-2.381-.313-.656-.269-.635-.317.287-.681.547-.215 1.697-.392 2.558-.392 1.102 0 1.564-.145 1.564-.491 0-.823.853-.92 8.08-.92h6.965l1.915-1.853c1.053-1.02 2.353-2.136 2.89-2.482.828-.533.918-.736.593-1.344-.285-.532-.27-.853.06-1.25.356-.428.353-.588-.014-.815-.268-.166-.364-.572-.232-.987.166-.521.037-.755-.491-.893-.834-.218-.958-1.241-.186-1.537.29-.112.529-.479.529-.816 0-.848 1.118-1.78 2.144-1.786.47-.003 1.092-.16 1.384-.348.413-.267.322-.343-.42-.347-.523-.003-1.063-.188-1.201-.412-.432-.698.922-1.365 2.317-1.142.78.125 2.035-.031 3.204-.398 1.664-.524 5.264-.988 10.853-1.4 3.075-.227 3.739-.487 4.297-1.688.524-1.129.554-1.14 3.26-1.213 1.501-.04 3.039-.24 3.416-.441.377-.202 1.503-.367 2.502-.367 2.6 0 2.104-.744-.86-1.291-5.136-.948-6.042-1.765-3.057-2.756 1.365-.453 2.47-.527 5.203-.348 2.883.189 3.59.132 4.176-.335.657-.523.664-.594.108-1.027-.328-.255-3.741-.991-7.584-1.635-3.844-.643-7.249-1.304-7.568-1.467-.318-.164-2.682-.544-5.251-.844-2.57-.3-4.81-.63-4.977-.734-.874-.54.005-.836 2.782-.936 2.491-.09 2.866-.17 1.94-.411-2.13-.555-1.164-.916 2.452-.916 2.486 0 3.485-.113 3.233-.366-.42-.42-6.43-1.379-7.096-1.132-.243.09-.876.054-1.407-.08-.85-.213-.89-.282-.342-.59.342-.19 1.213-.31 1.935-.263 2.99.193 9.775-.112 8.616-.387-1.46-.345-1.783-.656-1.118-1.076.509-.322.038-.387-3.891-.533-.68-.025-2.029-.223-2.999-.439a56.626 56.626 0 00-3.351-.627c-2.171-.32-2.981-.77-2.477-1.377.31-.375.118-.513-.948-.678-2.018-.31-4.763-.323-5.694-.025-.824.263-.826.258-.265-.826.696-1.345.699-1.479.035-1.479-.636 0-.717-.687-.088-.749.242-.024 2.108-.143 4.145-.264 3.495-.21 3.71-.266 3.817-1.015.137-.962.263-.97 2.026-.137 1.758.831 4.035.65 4.035-.322 0-.984.57-1.14 2.426-.665 1.546.396 1.785.37 2.721-.298.565-.402 2.259-.978 3.765-1.28 3.28-.656 4.644-1.314 6.168-2.976 1.033-1.127 1.433-1.293 4.057-1.691 4.271-.647 4.885-.843 5.903-1.885.723-.74 1.05-.864 1.507-.576.809.51.931.258.663-1.371-.182-1.105-.404-1.436-1.021-1.524-.434-.062-.79-.33-.79-.596 0-.768.725-1.01 1.3-.436.417.416.834.457 1.995.194.956-.217 3.375-.192 6.936.072 4.483.332 6.581.31 11.642-.123 3.396-.29 7.364-.766 8.82-1.057 6.427-1.287 9.645-1.73 11.218-1.543 1.572.186 1.711.135 2.267-.834.47-.819.838-1.032 1.778-1.032.86 0 1.467-.295 2.21-1.07.9-.94.97-1.159.575-1.792-.489-.783-.04-1.724.82-1.724.242 0 .843-.318 1.336-.706 1.656-1.303 4.055-.774 3.658.807-.196.78-.036.969 1.396 1.642 1.26.592 1.726.669 2.114.347.758-.63.593-1.133-.3-.909-.438.11-1.01.069-1.27-.092-.753-.466-.322-1.604.66-1.739.483-.066 1.145-.359 1.471-.65.658-.588 2.38-.375 3.638.449.475.31.891.356 1.24.136.29-.183 1.608-.335 2.93-.338 1.323-.003 2.714-.171 3.092-.374.454-.242 1.099-.254 1.894-.034.997.275 1.309.22 1.794-.316 1.102-1.217.373-1.392-4.878-1.167-2.756.117-6.123.233-7.481.256-1.358.023-2.831.248-3.274.5-.914.522-4.368.44-4.548-.107-.174-.53 2.824-1.768 6.41-2.649 1.747-.428 3.398-.9 3.669-1.047.737-.402-3.905-1.12-5.546-.858-1.385.222-2.258-.278-1.601-.918.167-.163 4.908-.398 10.534-.522l24.519-.539c9.513-.209 15.466-.493 17.815-.851 1.94-.296 3.805-.541 4.145-.545.869-.01.768.86-.176 1.52-.79.55-.787.553.413.571.664.01 1.481.267 1.816.57.336.304 1.142.535 1.792.513.65-.022 2.015-.043 3.034-.047 1.019-.004 1.852-.121 1.852-.26 0-.601-2.087-1.451-3.078-1.253-.985.197-1.033.15-1.007-.993l.028-1.2 1.926.594c1.059.327 1.985.774 2.058.992.072.219.496.397.94.397.445 0 1.483.238 2.308.53 1.575.555 4.234.719 4.234.26 0-.148-.614-.664-1.365-1.147-6.333-4.076-7.51-4.972-7.128-5.432.215-.26.298-.712.185-1.007-.315-.822 3.881-.534 6.023.414.928.41 1.737.698 1.796.638.366-.365-.438-1.706-1.127-1.879-.454-.114-.998-.416-1.21-.67-.724-.873.196-.82 2.114.12 1.441.707 2 1.204 2.25 2 .398 1.27.797 1.575 2.077 1.582.737.004.97-.165.97-.7 0-.389.177-.706.392-.706.24 0 .306-.339.17-.882-.328-1.303.223-1.082 1.94.781.843.915 2.327 2.198 3.298 2.85 1.741 1.173 1.78 1.18 2.962.617.975-.465 1.423-.497 2.406-.173.992.327 1.361.297 2.075-.17.49-.321.869-.91.869-1.35 0-1.025-4.073-4.84-6.88-6.442-2.882-1.646-5.76-4.228-5.27-4.73.373-.385 7.694 1.811 11.518 3.456 2.516 1.082 4.105 1.305 4.37.614.332-.866.918-.717 4.896 1.24 2.074 1.021 3.916 1.717 4.229 1.597.304-.117.7-.598.879-1.069.428-1.126.757-1.297 2.56-1.333 1.614-.032 3.353.618 9.455 3.53l3.708 1.77 11.461.014c19.715.024 22.373.08 22.858.479.54.443 6.925-.11 13.65-1.183 2.329-.37 7.33-.93 11.113-1.242 3.783-.312 6.916-.6 6.961-.64.045-.04-.1-.556-.322-1.145-.735-1.947.327-3.095 1.112-1.2.56 1.351 1.562 2.234 2.362 2.08.352-.068 1.006-.82 1.452-1.673.447-.853 1.191-2 1.655-2.552.463-.55.94-1.28 1.061-1.62.468-1.326 2.114-2.181 4.367-2.27 2.843-.113 3.455.448 1.652 1.511-1.241.733-1.31.862-1.11 2.104.205 1.284.164 1.347-1.329 2.07-.847.41-1.79 1.022-2.096 1.36-.525.58-.355.613 3.054.596l3.61-.017 1.773-1.84c1.698-1.762 2.962-2.354 2.962-1.387 0 .25-.807 1.057-1.794 1.793-.986.736-1.711 1.422-1.61 1.522.245.246 3.694-.913 3.95-1.326.11-.18.596-.326 1.08-.326.483 0 1.349-.243 1.924-.54 1.485-.769 4.436-.361 5.664.781.888.827 1.142.864 6.625.967 3.135.058 5.81.216 5.945.35.375.375-.634.866-2.293 1.117-.825.125-1.5.35-1.5.498 0 .149.555.694 1.232 1.21.678.517 1.338 1.37 1.467 1.895.4 1.62 1.192 2.541 2.193 2.546.511.002 1.612.394 2.445.87 1.465.838 1.74.867 8.114.852 3.63-.01 6.757-.001 6.95.016.615.056-.672.716-1.41.723-.388.004-1.327.18-2.085.39-1.02.284-1.25.466-.882.699.273.173.86.317 1.302.32.443.003.896.244 1.008.535.144.375.728.53 2 .53 2.622 0 1.774.47-3.46 1.924-6.037 1.675-5.634 1.507-5.112 2.136.333.401.339.642.025 1.02-.226.273-.312.89-.191 1.372.16.637.01 1.071-.552 1.594-.846.788-.677 1.478.362 1.478.365 0 .762.159.882.353.396.64 2.243.4 2.642-.345.604-1.129 1.467-1.408 2.935-.95.861.27 1.282.597 1.21.942-.06.291-.382.483-.714.426-.981-.169-.695.76.63 2.044 1.534 1.486 1.558 2.283.096 3.172-.973.592-1.123.866-1.034 1.896.08.928-.144 1.484-.978 2.435-.937 1.067-1.011 1.29-.554 1.668.29.24.713 1.093.942 1.895.575 2.02 1.153 2.582 2.924 2.848 1.915.287 4.58 2.022 5.665 3.69 1.28 1.966 2.051 5.122 1.835 7.506-.102 1.13-.043 2.142.133 2.25.59.365.327 1.438-.555 2.266-.921.865-2.444 3.508-2.177 3.776.087.086.74.048 1.453-.086.906-.17 1.391-.492 1.61-1.068.193-.508.758-.944 1.474-1.138 1.383-.376 1.878-.189 1.31.495-.545.657.164.658 2.798 0 2.701-.673 6.105-.91 5.943-.415-.068.21-1.541.98-3.273 1.711-1.731.731-3.624 1.568-4.207 1.86l-1.058.533.97-.185a81.092 81.092 0 001.94-.4c1.285-.284-2.297 1.934-4.497 2.786-.874.337-2.858 1.294-4.41 2.126-2.52 1.35-2.841 1.638-2.999 2.682-.147.975-.411 1.261-1.587 1.716-.776.3-1.82.828-2.318 1.173-1.362.94-4.02 1.492-6.136 1.274-1.65-.17-1.908-.11-2.062.478-.097.37-.576.824-1.066 1.01-.49.187-1.223.625-1.63.975-.406.35-1.087.72-1.512.825-.446.11-.859.557-.977 1.058-.287 1.224-1.924 1.973-3.024 1.384-.66-.354-.938-.355-1.357-.007-.316.262-.935.347-1.55.212-1.14-.25-3.921.69-3.982 1.347-.02.222-.01.82.022 1.33.099 1.539-1.398 2.424-4.098 2.424-2.135 0-2.273.052-2.62.97-.202.534-.783 1.406-1.29 1.939-.84.88-1.135.963-3.242.908-1.559-.041-2.441-.229-2.698-.574-.327-.44-.696-.372-2.562.465-1.503.675-2.151 1.155-2.088 1.546.078.478-.239.55-2.024.455-2.68-.141-3.351-.337-3.351-.977 0-.543-.984-.45-2.906.277-1.002.378-1.845.294-4.462-.447-1.178-.334-1.703-.341-2.2-.03-.36.224-1.502.407-2.54.407-1.037 0-2.746.153-3.797.34-6.629 1.183-12.33 1.853-12.755 1.5-.327-.271-1.203-.236-3.096.125-1.452.277-3.434.508-4.404.513-.97.005-2.44.165-3.265.355-1.357.313-1.681.245-3.38-.714-2.635-1.487-4.225-1.434-6.338.212-.899.7-1.736 1.613-1.862 2.029-.295.98-1.905 2.696-2.53 2.696-.268 0-.804-.17-1.192-.378-.919-.492-.363-1.216 1.169-1.523 2.082-.416.655-.671-4.379-.784-4.513-.1-5.747.016-11.913 1.128-3.784.683-8.416 1.562-10.294 1.954-3.26.68-4.554.69-7.847.068l-1.032-.195 1.032-.433c.567-.237 2.11-.635 3.427-.883 1.477-.278 2.342-.604 2.255-.85-.19-.536-3.068-.322-3.758.282-.821.718-2.029.986-2.735.608-.603-.323-3.264.132-4.158.711-.808.524-2.954.695-3.7.295-.67-.358-.912-.289-1.732.497-.525.503-1.192.914-1.483.914-.904 0-3.136 2.308-3.136 3.243 0 .47-.229 1.163-.508 1.54-.485.655-.535.658-1.14.062-.542-.535-.566-.729-.167-1.368.393-.629.38-.83-.082-1.291-.447-.448-.713-.472-1.458-.132-1.27.578-2.273.518-2.53-.152-.178-.463-.543-.525-1.98-.334-.97.128-2.335.525-3.035.882-.7.356-2.541.901-4.094 1.211-1.552.31-3.633.79-4.624 1.064-2.913.809-7.994 1.337-8.288.861-.173-.28-1.084-.327-3.016-.155-1.523.136-4.594.387-6.826.559-6.84.526-15.016 2.361-18.854 4.231-1.59.775-2.7 1.068-4.045 1.068-2.091 0-2.346-.649-.448-1.14.617-.16 1.122-.446 1.122-.634 0-.481-2.372-.4-6.703.228-2.054.298-8.301.666-14.025.825-9.501.265-10.475.35-12.27 1.08-1.78.721-2.126.753-3.967.366-1.512-.318-3.071-.332-6.232-.054-2.319.203-5.592.272-7.273.152-2.447-.173-3.289-.101-4.217.362-1.245.62-2.562.708-3.701.246zm39.955-4.85a2.898 2.898 0 00-1.234 0c-.34.09-.062.162.617.162.68 0 .957-.073.617-.161zm66.764-7.87c.43-.278.384-.343-.244-.347-.425-.003-.871.153-.991.347-.278.449.54.449 1.235 0zm94.399-8.91c.365-.364-1.708-.263-4.438.217-1.609.283-2.323.571-2.398.97-.095.504.258.484 3.233-.179 1.837-.41 3.458-.863 3.603-1.007zM32.557 89.437c.123-.2-.173-.353-.685-.353-.558 0-.903-.198-.903-.517 0-1.25-3.11-1.75-3.423-.552-.304 1.162-.194 1.238 2.094 1.449 1.216.112 2.32.231 2.455.264.134.034.342-.097.462-.291zm1.234-1.94c0-.292-.218-.53-.486-.53-.267 0-.683.238-.925.53-.371.447-.296.528.486.528.587 0 .925-.193.925-.529zM74.008 38.45c0-.184-.846-.547-2.423-1.04-.617-.191-.795-.137-.68.209.209.624 3.103 1.4 3.103.831zm51.858-3.475c0-.503-1.95-1.07-2.505-.727-.175.108-.317.425-.317.704 0 .358.418.509 1.411.509.962 0 1.411-.155 1.411-.486zm1.36-4.976c-.807-.852-2.065-1.204-2.065-.579 0 .46 1.49 1.415 2.242 1.436.587.017.569-.071-.177-.857zm66.344-5.636c1.5-.215 1.78-.347 1.3-.616-.866-.485-3.013-2.848-3.025-3.33-.016-.672-.686-.744-6.007-.649-5.56.1-8.353.407-8.692.956-.357.577.674 1.007 1.901.793 1.737-.302 3.522.14 3.727.924.133.507.51.68 1.532.702 1.237.027 1.158.079-.898.595-1.308.329-2.017.65-1.689.765.816.286 9.6.182 11.851-.14zm10.58-1.36c-.434-.95-3.778-3.218-5.27-3.572-.479-.114-1.347-.07-1.929.098l-1.058.305 2.116 1.06c1.164.583 3.053 1.562 4.196 2.177 1.144.614 2.142 1.054 2.218.978.077-.077-.047-.547-.274-1.045zm-32.46-1.976c.271-.172.404-.544.295-.827-.391-1.02-7.313-.582-7.313.462 0 .157.357.354.794.438 1.496.289 5.732.239 6.225-.073zm-33.187-1.177c-.082-.573-.309-.76-.819-.672-.967.167-1.026.278-.476.9.72.815 1.425.691 1.295-.228zm40.495-1.385c.178-.288.053-.328-.422-.134-.371.152-.966.36-1.322.462-.483.138-.533.256-.196.464.487.3 1.527-.124 1.94-.792zm13.717-4.882c-.24-.386-2.788-1.762-3.247-1.753-.245.005 3.08 2.09 3.359 2.105.06.003.01-.155-.112-.352zm42.004-1.24c-.377-.285-.853-.513-1.058-.506-.206.007.023.24.508.517 1.143.653 1.42.647.55-.012zm-1.764-.838c-.223-.361-3.19-2.15-3.566-2.15-.595 0 .852 1.229 2.134 1.812 1.645.748 1.692.76 1.432.338zm-18.189 98.039c0-.194.318-.67.706-1.058l.705-.706v1.058c0 .823-.156 1.059-.705 1.059-.388 0-.706-.16-.706-.353zM315.2 95.913c-.33-.33.069-.833.658-.833a.52.52 0 01.508.53c0 .53-.744.724-1.166.303zM42.858 75.807c-.555-.556-.226-1.234.546-1.124.437.062.794.348.794.637 0 .56-.929.898-1.34.487zm8.102-3.187c-.865-.865.635-1.13 1.726-.305.65.491.63.518-.403.529-.599.006-1.194-.095-1.323-.224zm-3.41-3.079c0-.27.258-.59.573-.711.647-.248 1.639.41 1.342.89-.316.512-1.915.363-1.915-.179zm-1.059-4.094c0-.194.238-.353.53-.353.29 0 .529.159.529.353 0 .194-.239.352-.53.352-.29 0-.529-.158-.529-.352zm-16.404-7.069c-2.522-.131-4.665-.275-4.762-.32-.097-.044.242-.207.753-.362 1.03-.31 9.973.363 10.39.783.145.146-.2.236-.766.202-.566-.035-3.093-.171-5.615-.303zm7.124-11.501c-.368-.368.098-.833.834-.833.377 0 .685.238.685.53 0 .522-1.083.739-1.519.303zm3.33-.601c-.217-.26-.295-.572-.174-.693.33-.33 1.59.445 1.35.831-.288.468-.715.418-1.177-.138zm331.401-2.119c-.815-.596-.427-1.288.724-1.288.999 0 1.55.975.813 1.441-.655.415-.776.403-1.537-.153zM62.8 39.981c.218-.655.977-.763.977-.14a.56.56 0 01-.558.558c-.307 0-.496-.188-.42-.418zm4.505-8.401c0-.194.397-.353.882-.353s.882.159.882.353c0 .194-.397.353-.882.353s-.882-.159-.882-.353zm42.686-4.036c0-.303.159-.55.353-.55.194 0 .353.15.353.332 0 .182-.159.43-.353.55-.194.12-.353-.03-.353-.332zm2.47.168c0-.571 1.44-1.183 1.841-.782.195.196.248.528.118.739-.293.474-1.96.51-1.96.043zm19.65-11.422c-.249-.645.288-1.437.771-1.139.563.348.485 1.612-.099 1.612-.27 0-.573-.212-.673-.473zm.484-3.552c-.24-.29-.338-.839-.217-1.22.12-.38.055-.795-.147-.92-.613-.378-.411-1.243.29-1.243.516 0 .707.357.885 1.655.246 1.797-.115 2.566-.81 1.728zm103.72-7.822c-1.13-.951-1.437-1.911-.61-1.911.566 0 2.345 1.577 2.345 2.079 0 .768-.703.7-1.734-.168zm3.545-3.18c-1.279-.861-1.768-1.384-1.524-1.628s.737-.077 1.536.522c.647.485 1.533.99 1.97 1.123.835.254 1.113 1.252.348 1.252-.245 0-1.293-.57-2.33-1.269z"/></svg>